<svg width="256" height="256" viewBox="0 0 256 256" fill="none" xmlns="http://www.w3.org/2000/svg">
<g clip-path="url(#clip0_2009_6)">
<path d="M208.4 215L166.16 206.6L167.84 197.48L147.44 203C133.84 203 123.12 201.16 115.28 197.48C107.44 193.64 101.84 188.36 98.48 181.64C95.28 174.92 93.68 167.08 93.68 158.12C93.68 153.64 93.92 148.92 94.4 143.96C95.04 139 95.84 133.72 96.8 128.12C99.84 110.68 104.32 96.2 110.24 84.68C116.16 73 124.48 64.2 135.2 58.28C145.92 52.36 160.08 49.4 177.68 49.4C198.32 49.4 212.88 53.56 221.36 61.88C229.84 70.2 234.08 82.52 234.08 98.84C234.08 109.24 232.96 119.56 230.72 129.8C228.48 139.88 225.52 149.08 221.84 157.4C218.32 165.72 214.48 172.36 210.32 177.32L225.2 187.4L208.4 215ZM118.4 60.92L44.96 53H129.2C127.28 54.12 125.44 55.32 123.68 56.6C121.92 57.88 120.16 59.32 118.4 60.92ZM101.6 85.64L11.84 76.04H106.4C105.6 77.64 104.8 79.24 104 80.84C103.2 82.28 102.4 83.88 101.6 85.64ZM139.04 165.56H158C163.28 165.56 167.6 164.92 170.96 163.64C174.48 162.36 176.8 158.76 177.92 152.84L188.96 90.44H169.76C164.48 90.44 160.16 91.08 156.8 92.36C153.44 93.64 151.2 97.24 150.08 103.16L139.04 165.56ZM93.68 108.92L0.559998 99.08H96.56L93.68 108.92ZM89.12 132.2L-5.2 122.12H90.8L89.12 132.2ZM86.72 155.24L-7.84 145.16H87.44C86.96 148.68 86.72 152.04 86.72 155.24ZM88.88 178.28L-4.72 168.2H86.96C87.28 169.96 87.6 171.72 87.92 173.48C88.24 175.08 88.56 176.68 88.88 178.28ZM105.2 200.36L18.32 191.48H95.6C96.88 192.76 98.4 194.28 100.16 196.04C102.08 197.64 103.76 199.08 105.2 200.36Z" fill="#FF10D3"/>
</g>
<defs>
<clipPath id="clip0_2009_6">
<rect width="256" height="256" fill="white"/>
</clipPath>
</defs>
</svg>
