<svg width="73" height="9" viewBox="0 0 73 9" fill="none" xmlns="http://www.w3.org/2000/svg">
<path d="M11.22 8.6L9.108 8.18L9.192 7.724L8.172 8C7.492 8 6.956 7.908 6.564 7.724C6.172 7.532 5.892 7.268 5.724 6.932C5.564 6.596 5.484 6.204 5.484 5.756C5.484 5.532 5.496 5.296 5.52 5.048C5.552 4.8 5.592 4.536 5.64 4.256C5.792 3.384 6.016 2.66 6.312 2.084C6.608 1.5 7.024 1.06 7.56 0.763999C8.096 0.467999 8.804 0.319999 9.684 0.319999C10.716 0.319999 11.444 0.528 11.868 0.944C12.292 1.36 12.504 1.976 12.504 2.792C12.504 3.312 12.448 3.828 12.336 4.34C12.224 4.844 12.076 5.304 11.892 5.72C11.716 6.136 11.524 6.468 11.316 6.716L12.06 7.22L11.22 8.6ZM6.72 0.896L3.048 0.5H7.26C7.164 0.556 7.072 0.616 6.984 0.68C6.896 0.743999 6.808 0.816 6.72 0.896ZM5.88 2.132L1.392 1.652H6.12C6.08 1.732 6.04 1.812 6 1.892C5.96 1.964 5.92 2.044 5.88 2.132ZM7.752 6.128H8.7C8.964 6.128 9.18 6.096 9.348 6.032C9.524 5.968 9.64 5.788 9.696 5.492L10.248 2.372H9.288C9.024 2.372 8.808 2.404 8.64 2.468C8.472 2.532 8.36 2.712 8.304 3.008L7.752 6.128ZM5.484 3.296L0.828 2.804H5.628L5.484 3.296ZM5.256 4.46L0.54 3.956H5.34L5.256 4.46ZM5.136 5.612L0.408 5.108H5.172C5.148 5.284 5.136 5.452 5.136 5.612ZM5.244 6.764L0.564 6.26H5.148C5.164 6.348 5.18 6.436 5.196 6.524C5.212 6.604 5.228 6.684 5.244 6.764ZM6.06 7.868L1.716 7.424H5.58C5.644 7.488 5.72 7.564 5.808 7.652C5.904 7.732 5.988 7.804 6.06 7.868ZM17.7772 8.144C16.9532 8.144 16.3772 8.024 16.0492 7.784C15.7212 7.536 15.5572 7.108 15.5572 6.5C15.5572 6.316 15.5692 6.12 15.5932 5.912C15.6172 5.704 15.6492 5.476 15.6892 5.228L16.3252 1.652H18.3412L17.5252 6.32H18.1252C18.3252 6.32 18.4692 6.296 18.5572 6.248C18.6532 6.2 18.7172 6.072 18.7492 5.864L19.5052 1.652H21.5212L20.8972 5.228C20.7692 5.956 20.5972 6.536 20.3812 6.968C20.1652 7.392 19.8532 7.696 19.4452 7.88C19.0372 8.056 18.4812 8.144 17.7772 8.144ZM15.8572 2.192L10.7692 1.652H15.9412L15.8572 2.192ZM15.6532 3.344L10.5652 2.804H15.7492L15.6532 3.344ZM15.4492 4.496L10.3612 3.956H15.5452L15.4492 4.496ZM15.2452 5.648L10.1572 5.108H15.3412L15.2452 5.648ZM15.2092 6.8L10.1212 6.26H15.1972V6.5C15.1972 6.556 15.1972 6.608 15.1972 6.656C15.1972 6.704 15.2012 6.752 15.2092 6.8ZM15.6652 7.964L10.5772 7.424H15.3172C15.4052 7.648 15.5212 7.828 15.6652 7.964ZM23.9519 8L25.0559 1.652H29.2799L28.7159 3.452H26.7599L26.6159 4.268H28.4159L28.2119 5.42H26.4239L26.2799 6.236H28.4999L28.1879 8H23.9519ZM24.5759 2.192L19.4879 1.652H24.6599L24.5759 2.192ZM24.3719 3.344L19.2839 2.804H24.4679L24.3719 3.344ZM24.1679 4.496L19.0799 3.956H24.2639L24.1679 4.496ZM23.9639 5.648L18.8759 5.108H24.0599L23.9639 5.648ZM23.7599 6.8L18.6719 6.26H23.8559L23.7599 6.8ZM23.5559 7.964L18.4679 7.424H23.6519L23.5559 7.964ZM31.8269 8L32.9309 1.652H35.9789C36.4269 1.652 36.7749 1.72 37.0229 1.856C37.2789 1.992 37.4589 2.18 37.5629 2.42C37.6749 2.66 37.7309 2.932 37.7309 3.236C37.7309 3.476 37.6949 3.768 37.6229 4.112C37.5589 4.456 37.4349 4.792 37.2509 5.12C37.0749 5.44 36.8149 5.696 36.4709 5.888L37.1549 8H34.9109L34.4549 6.152H34.1669L33.8429 8H31.8269ZM32.4509 2.192L27.3629 1.652H32.5349L32.4509 2.192ZM32.2469 3.344L27.1589 2.804H32.3429L32.2469 3.344ZM34.4549 4.508H34.8389C34.9989 4.508 35.1349 4.488 35.2469 4.448C35.3669 4.4 35.4389 4.3 35.4629 4.148L35.5349 3.728C35.5349 3.712 35.5349 3.7 35.5349 3.692C35.5429 3.676 35.5469 3.664 35.5469 3.656C35.5469 3.544 35.4869 3.476 35.3669 3.452C35.2549 3.42 35.1029 3.404 34.9109 3.404H34.6469L34.4549 4.508ZM32.0429 4.496L26.9549 3.956H32.1389L32.0429 4.496ZM31.8389 5.648L26.7509 5.108H31.9349L31.8389 5.648ZM31.6349 6.8L26.5469 6.26H31.7309L31.6349 6.8ZM31.4309 7.964L26.3429 7.424H31.5269L31.4309 7.964ZM41.1953 8L41.5073 6.188L40.5713 1.652H42.6353L42.8993 3.956H42.9713L43.9673 1.652H46.0673L43.5233 6.188L43.2233 8H41.1953ZM40.3193 2.192L35.2313 1.652H40.2113L40.3193 2.192ZM40.5593 3.344L35.4713 2.804H40.4513L40.5593 3.344ZM40.7993 4.496L35.7113 3.956H40.6913L40.7993 4.496ZM41.0393 5.648L35.9513 5.108H40.9193L41.0393 5.648ZM41.0393 6.8L35.9513 6.26H41.1353L41.0393 6.8ZM40.8353 7.964L35.7473 7.424H40.9313L40.8353 7.964ZM48.0925 8L49.1965 1.652H52.4365C52.9325 1.652 53.2845 1.756 53.4925 1.964C53.7005 2.164 53.8045 2.436 53.8045 2.78C53.8045 3.212 53.7045 3.592 53.5045 3.92C53.3045 4.248 53.0685 4.476 52.7965 4.604L52.7845 4.676C53.0645 4.764 53.2645 4.904 53.3845 5.096C53.5125 5.288 53.5765 5.512 53.5765 5.768C53.5765 6.448 53.3925 6.992 53.0245 7.4C52.6565 7.8 52.0765 8 51.2845 8H48.0925ZM48.7285 2.192L43.6405 1.652H48.8125L48.7285 2.192ZM48.5245 3.344L43.4365 2.804H48.6205L48.5245 3.344ZM50.8165 3.944H51.4765C51.6125 3.944 51.7045 3.888 51.7525 3.776C51.8085 3.664 51.8365 3.544 51.8365 3.416C51.8365 3.344 51.8205 3.288 51.7885 3.248C51.7565 3.2 51.6925 3.176 51.5965 3.176H50.9485L50.8165 3.944ZM48.3205 4.496L43.2325 3.956H48.4165L48.3205 4.496ZM48.1165 5.648L43.0285 5.108H48.2125L48.1165 5.648ZM50.3845 6.428H51.1285C51.2885 6.428 51.3965 6.364 51.4525 6.236C51.5165 6.108 51.5485 5.968 51.5485 5.816C51.5485 5.728 51.5285 5.66 51.4885 5.612C51.4565 5.564 51.3885 5.54 51.2845 5.54H50.5405L50.3845 6.428ZM47.9125 6.8L42.8245 6.26H48.0085L47.9125 6.8ZM47.7085 7.964L42.6205 7.424H47.8045L47.7085 7.964ZM59.1549 8.144C58.2829 8.144 57.6709 7.976 57.3189 7.64C56.9749 7.296 56.8029 6.784 56.8029 6.104C56.8029 5.92 56.8149 5.72 56.8389 5.504C56.8629 5.288 56.8949 5.064 56.9349 4.832C57.0629 4.096 57.2509 3.484 57.4989 2.996C57.7469 2.508 58.0949 2.144 58.5429 1.904C58.9909 1.656 59.5829 1.532 60.3189 1.532C61.1989 1.532 61.8189 1.704 62.1789 2.048C62.5389 2.384 62.7189 2.896 62.7189 3.584C62.7189 3.76 62.7069 3.956 62.6829 4.172C62.6589 4.38 62.6269 4.6 62.5869 4.832C62.4589 5.56 62.2709 6.172 62.0229 6.668C61.7749 7.156 61.4229 7.524 60.9669 7.772C60.5109 8.02 59.9069 8.144 59.1549 8.144ZM57.7149 2.048L54.0309 1.652H58.2069C58.0149 1.764 57.8509 1.896 57.7149 2.048ZM56.9589 3.284L52.4229 2.804H57.1629C57.1309 2.884 57.0949 2.964 57.0549 3.044C57.0229 3.116 56.9909 3.196 56.9589 3.284ZM58.7949 6.32H59.5029C59.7109 6.32 59.8789 6.296 60.0069 6.248C60.1429 6.2 60.2269 6.072 60.2589 5.864L60.7149 3.356H59.9829C59.7909 3.356 59.6269 3.38 59.4909 3.428C59.3549 3.476 59.2709 3.6 59.2389 3.8L58.7949 6.32ZM56.6349 4.46L51.9429 3.956H56.7429L56.6349 4.46ZM56.4549 5.612L51.7269 5.108H56.5149C56.5069 5.196 56.4949 5.284 56.4789 5.372C56.4709 5.452 56.4629 5.532 56.4549 5.612ZM56.4909 6.764L51.7749 6.26H56.4429C56.4429 6.348 56.4469 6.436 56.4549 6.524C56.4709 6.604 56.4829 6.684 56.4909 6.764ZM57.0069 7.868L52.8189 7.424H56.6949C56.7349 7.504 56.7789 7.584 56.8269 7.664C56.8829 7.736 56.9429 7.804 57.0069 7.868ZM65.0444 8L67.1444 4.796L66.1604 1.652H68.5724L68.8844 3.068H68.9924L69.8444 1.652H72.1484L70.0484 4.796L71.0444 8H68.6924L68.3204 6.512H68.2124L67.3244 8H65.0444ZM65.9684 2.192L60.8804 1.652H65.8004L65.9684 2.192ZM66.3284 3.344L61.2524 2.804H66.1604L66.3284 3.344ZM66.6764 4.496L61.6004 3.956H66.5084L66.6764 4.496ZM66.1844 5.624L61.3364 5.108H66.5204L66.1844 5.624ZM65.4284 6.776L60.5804 6.26H65.7644L65.4284 6.776ZM64.6604 7.94L59.8124 7.424H64.9964L64.6604 7.94Z" fill="white"/>
</svg>
